# xmcd
#
# Track frame offsets:
#  182
#  18022
#  37230
#  59947
#  85265
#  103940
#  131945
#  157147
#
# Disc length: 2472 seconds
#
# Revision: 2
# Processed by: cddbd v1.5.1PL2 Copyright (c) Steve Scherf et al.
# Submitted via: Collectorz.com_Music_Collector 6.11
#
DISCID=7609a608
DTITLE=Dupree, Champion Jack - The Heart Of The Blues Is Sound
DYEAR=1990
DGENRE=Blues
TTITLE0=My Baby's Coming Home
TTITLE1=Armstrong - You Rascal You
TTITLE2=No Tomorrow
TTITLE3=The Heart Of The Blues Is Sound
TTITLE4=The Japanese Special
TTITLE5=Hard Feeling
TTITLE6=Blues From 1921
TTITLE7=Don't Mistreat Your Woman (When You Know You're Doing Wrong Yourself)
EXTD=
EXTT0=
EXTT1=
EXTT2=
EXTT3=
EXTT4=
EXTT5=
EXTT6=
EXTT7=
PLAYORDER=
